<svg width="165" height="93" viewBox="0 0 165 93" fill="none" xmlns="http://www.w3.org/2000/svg">
<g clip-path="url(#clip0_1489_12500)">
<path d="M96.9594 39.5732H64.2706C58.5983 39.5732 54 44.188 54 49.8807V82.6869C54 88.3796 58.5983 92.9944 64.2706 92.9944H96.9594C102.632 92.9944 107.23 88.3796 107.23 82.6869V49.8807C107.23 44.188 102.632 39.5732 96.9594 39.5732Z" fill="#3FF5BF"/>
<path d="M94.2692 81.6696C94.091 81.6696 93.9183 81.569 93.8403 81.3957L80.6122 52.5079L67.3841 81.3957C67.2727 81.6361 66.9942 81.7367 66.7603 81.6305C66.5208 81.5187 66.4205 81.2392 66.5263 81.0044L80.1833 51.1775C80.2613 51.0098 80.4284 50.9036 80.6122 50.9036C80.796 50.9036 80.9631 51.0098 81.0411 51.1775L94.6981 81.0044C94.8095 81.2448 94.6981 81.5243 94.4641 81.6305C94.4029 81.6584 94.336 81.6752 94.2692 81.6752V81.6696Z" fill="#141528"/>
<path d="M89.6742 71.636H71.5558C71.294 71.636 71.0824 71.4236 71.0824 71.1609C71.0824 70.8982 71.294 70.6857 71.5558 70.6857H89.6742C89.936 70.6857 90.1476 70.8982 90.1476 71.1609C90.1476 71.4236 89.936 71.636 89.6742 71.636Z" fill="#141528"/>
<path d="M83.9819 51.6806C83.9819 53.5476 82.4781 55.0568 80.6178 55.0568C78.7575 55.0568 77.2537 53.5476 77.2537 51.6806C77.2537 49.8136 78.7575 48.3044 80.6178 48.3044C82.4781 48.3044 83.9819 49.8136 83.9819 51.6806Z" fill="white"/>
<path d="M70.3249 81.2001C70.3249 83.067 68.8211 84.5763 66.9608 84.5763C65.1005 84.5763 63.5967 83.067 63.5967 81.2001C63.5967 79.3331 65.1005 77.8239 66.9608 77.8239C68.8211 77.8239 70.3249 79.3331 70.3249 81.2001Z" fill="white"/>
<path d="M127.065 -8.38537L94.6953 54.5278L115.703 65.4145L148.073 2.50136L127.065 -8.38537Z" fill="#7C60FF"/>
<path d="M116.353 37.8236C118.024 38.69 118.676 40.7471 117.812 42.424L111.619 54.4643C110.756 56.1412 108.706 56.7952 107.035 55.9288C105.364 55.0624 104.712 53.0054 105.576 51.3285L111.769 39.2882C112.633 37.6112 114.682 36.9572 116.353 37.8236Z" fill="white"/>
<path d="M94.2693 82.6198C94.052 82.6198 93.8292 82.5695 93.6232 82.4633C92.9269 82.1056 92.654 81.2448 93.0161 80.5461L96.3022 74.1626C96.6587 73.4638 97.5164 73.19 98.2071 73.5533C98.8977 73.9166 99.1762 74.7718 98.8142 75.465L95.528 81.8485C95.2774 82.3348 94.7817 82.6198 94.2693 82.6198Z" fill="#141528"/>
<path d="M145.121 8.22595L148.68 1.31144C151.676 -4.50748 149.398 -11.6679 143.6 -14.6696C137.802 -17.6769 130.667 -15.3907 127.676 -9.57179L124.117 -2.65728L145.121 8.22595Z" fill="#7637FC"/>
<path d="M115.696 65.409L96.1574 78.6511C95.7397 78.9306 95.2551 78.6791 95.244 78.176L94.687 54.5258L115.69 65.409H115.696Z" fill="#141528"/>
<path d="M115.696 65.8842C115.624 65.8842 115.551 65.8674 115.479 65.8339L94.4753 54.9506C94.2414 54.8332 94.1523 54.5426 94.2748 54.3134C94.3918 54.0786 94.6814 53.9892 94.9097 54.1122L115.913 64.9954C116.147 65.1128 116.236 65.4034 116.114 65.6326C116.03 65.7947 115.863 65.8898 115.696 65.8898V65.8842Z" fill="white"/>
</g>
<defs>
<clipPath id="clip0_1489_12500">
<rect width="165" height="93" rx="28" fill="white"/>
</clipPath>
</defs>
</svg>
